PathFileType	4	(X/Y/Z)	..\data\2015007\dynamic\2015007_C4_03.trc
DataRate	CameraRate	NumFrames	NumMarkers	Units	OrigDataRate	OrigDataStartFrame	OrigNumFrames
100.000000	100.000000	4	52	mm	100.000000	41	166
Frame#	Time	L_IAS			L_IPS			R_IPS			R_IAS			L_FTC			L_FLE			L_FME			L_FAX			L_TTC			L_FAL			L_TAM			L_FCC			L_FM1			L_FM2			L_FM5			R_FTC			R_FLE			R_FME			R_FAX			R_TTC			R_FAL			R_TAM			R_FCC			R_FM1			R_FM2			R_FM5			CV7			TV10			SXS			SJN			L_SIA			L_SRS			L_SAA			L_SAE			L_HLE			L_HME			L_UOA			L_RSP			L_UHE			L_HM2			L_HM5			R_SIA			R_SRS			R_SAA			R_SAE			R_HLE			R_HME			R_UOA			R_RSP			R_UHE			R_HM2			R_HM5			
		X1	Y1	Z1	X2	Y2	Z2	X3	Y3	Z3	X4	Y4	Z4	X5	Y5	Z5	X6	Y6	Z6	X7	Y7	Z7	X8	Y8	Z8	X9	Y9	Z9	X10	Y10	Z10	X11	Y11	Z11	X12	Y12	Z12	X13	Y13	Z13	X14	Y14	Z14	X15	Y15	Z15	X16	Y16	Z16	X17	Y17	Z17	X18	Y18	Z18	X19	Y19	Z19	X20	Y20	Z20	X21	Y21	Z21	X22	Y22	Z22	X23	Y23	Z23	X24	Y24	Z24	X25	Y25	Z25	X26	Y26	Z26	X27	Y27	Z27	X28	Y28	Z28	X29	Y29	Z29	X30	Y30	Z30	X31	Y31	Z31	X32	Y32	Z32	X33	Y33	Z33	X34	Y34	Z34	X35	Y35	Z35	X36	Y36	Z36	X37	Y37	Z37	X38	Y38	Z38	X39	Y39	Z39	X40	Y40	Z40	X41	Y41	Z41	X42	Y42	Z42	X43	Y43	Z43	X44	Y44	Z44	X45	Y45	Z45	X46	Y46	Z46	X47	Y47	Z47	X48	Y48	Z48	X49	Y49	Z49	X50	Y50	Z50	X51	Y51	Z51	X52	Y52	Z52	

42	0.41	-722.3740844726564	908.8314208984377	123.125633239746	-936.6422119140627	914.4796142578127	204.2324218749999	-927.2852172851565	922.7757568359377	310.1445312499999	-708.6172485351564	906.6426391601565	370.7059936523437	-791.6350708007815	802.169616699219	63.79127883911124	-632.1725463867189	464.7957458496095	106.7427368164062	-618.4736938476564	445.6447143554689	228.3045806884765	-643.6777343750001	407.9143981933595	99.84716796874994	-587.9443359375001	397.163787841797	146.6443328857421	-671.7761230468751	84.85348510742189	129.7740173339843	-642.6873779296876	88.22802734375001	208.0901641845703	-708.3132324218751	34.20095443725587	186.5169372558593	-540.1646118164064	36.12979125976563	179.863525390625	-546.9912109375001	49.0523147583008	134.9127502441406	-594.6588134765626	27.61740493774415	98.49286651611324	-803.7937011718752	808.7918090820315	433.7767333984375	-820.164489746094	436.6738586425782	364.5290527343749	-838.6539306640627	425.1906738281251	238.1941223144531	-839.9028320312502	382.7218933105469	369.9210815429687	-795.6975708007815	369.4783935546876	320.2835083007812	-910.8178710937502	62.9885711669922	330.4537048339843	-885.957946777344	76.72141265869142	248.7321014404296	-959.0794067382815	18.14730834960938	281.9067687988281	-778.7907714843752	18.48763275146485	265.5559387207031	-782.880554199219	30.90503883361817	311.8864746093749	-835.931335449219	10.90733242034912	362.7619018554687	-831.4275512695315	1409.78759765625	261.0068969726562	-929.426940917969	1173.534423828125	251.2868194580078	-665.6051025390626	1077.028076171875	235.561782836914	-717.4633789062501	1327.728149414063	247.4298553466797	-933.954772949219	1221.320434570313	167.8162384033202	-892.970397949219	1348.495727539063	158.0173339843749	-852.0025634765627	1352.628784179688	92.70565032958976	-803.497253417969	1360.63671875	77.8220901489257	-857.9761352539065	1054.058471679688	4.622997760772601	-882.3853149414065	1048.212280273438	79.36795043945303	-887.0784912109377	1033.803466796875	30.66746520996083	-779.9400634765627	824.9461059570315	20.24622535705557	-848.6700439453127	826.9827880859377	-21.41106414794933	-760.1385498046876	761.9087524414064	6.821844577789215	-852.1065063476565	765.7497558593751	-24.63912582397472	-928.8908691406252	1213.291137695313	333.5643310546874	-885.0953369140627	1336.038452148438	339.5274047851562	-829.2446289062502	1338.250366210938	409.4356994628906	-781.3004150390627	1342.577026367188	423.6966247558594	-771.6784057617191	1024.294555664063	498.3291931152344	-816.4521484375002	1008.055603027344	441.9726257324219	-797.8222656250003	990.3280029296877	485.4042663574219	-650.8589477539065	830.2509765625002	467.9255371093751	-690.2258300781252	820.5388183593752	514.2244262695312	-604.3425292968752	762.4789428710939	471.8358764648438	-669.2192382812502	755.7332153320314	524.4654541015625	
43	0.42	-711.2810668945314	907.4176025390627	123.0715255737304	-925.856872558594	912.9855957031252	203.7362060546874	-916.883728027344	921.0547485351565	309.5495605468749	-698.4150390625001	904.9902343750002	370.8659057617187	-780.811218261719	801.014343261719	63.54431533813469	-619.8719482421876	464.2283325195314	107.0465393066406	-608.4116821289064	444.4573669433595	228.8394317626953	-629.0405883789064	406.8348999023439	99.69712066650386	-573.4990234375001	398.2208557128907	147.429214477539	-638.9574584960939	82.5399856567383	128.3925170898437	-611.3176269531251	87.22783660888673	207.0059509277343	-673.5430908203126	29.82347869873048	184.6391296386718	-505.6221313476564	40.68126296997071	180.5013580322265	-512.3666381835939	53.19568252563478	135.3973846435547	-558.2719726562501	29.46493148803712	98.15319824218746	-794.2231445312502	807.8375244140627	433.8669128417969	-816.1392822265627	436.1040344238282	364.2692565917968	-834.8355102539065	425.0350646972657	237.8521423339843	-836.551940917969	382.4297180175782	369.6196899414062	-792.4248657226565	368.5631713867188	320.0858764648437	-910.501892089844	63.23818588256837	329.9551086425781	-885.4552001953127	76.74153137207033	248.2506256103515	-958.9710083007815	18.64617347717286	281.4071655273437	-778.7302246093752	18.35030555725098	265.4485778808593	-782.8596801757815	30.81179809570313	311.7896728515624	-836.0217285156252	10.95565414428711	362.5433654785156	-820.4046020507815	1408.437622070313	260.8908386230468	-918.6378173828127	1172.322143554688	251.3225708007812	-654.7204589843751	1075.143920898438	235.5460357666015	-706.4186401367189	1326.168579101563	247.24609375	-923.1036376953127	1220.043579101563	167.830352783203	-882.022399902344	1347.172729492188	158.006362915039	-841.109558105469	1351.216674804688	92.66323089599601	-792.6213989257815	1359.084228515625	77.67100524902335	-850.119812011719	1052.965454101563	5.276432514190571	-873.695007324219	1047.332763671875	80.30219268798818	-879.0562744140627	1033.010375976563	31.65634346008291	-774.4033813476565	823.099548339844	19.60400772094717	-843.678161621094	825.8719482421877	-20.9663257598878	-755.4805297851564	759.7470703125001	5.852695941924957	-847.9766235351565	764.6380615234376	-24.24293518066417	-918.0845947265627	1212.159545898438	333.7145080566406	-874.0289306640627	1334.84375	339.6143493652343	-817.9605102539065	1336.920043945313	409.4393615722656	-769.9713134765627	1341.183227539063	423.5929565429688	-758.2432250976565	1023.056884765625	498.4712524414062	-803.2530517578127	1006.374328613281	442.3218383789062	-784.0781250000003	988.656921386719	485.5809936523438	-634.843444824219	830.8958129882815	466.1544494628907	-673.6770629882815	820.3619384765627	512.7429809570312	-587.1226806640627	763.8812255859376	469.4214477539063	-651.556335449219	755.8778076171876	522.537109375	
44	0.43	-700.1514892578126	906.0376586914065	122.8985595703124	-914.9969482421877	911.3357543945315	203.2311859130859	-906.3836059570315	919.2025146484377	308.9063110351562	-688.1834716796876	903.3342895507815	370.9732666015625	-769.984802246094	799.7178955078127	63.27031707763664	-608.0397949218751	463.3627319335939	107.2626876831054	-598.9508666992189	442.7430725097657	229.2532653808593	-614.9597778320314	405.6184997558595	99.47319793701168	-559.6603393554689	399.0253295898439	148.1188049316406	-607.2177124023439	81.00669097900392	127.1648330688476	-580.9854736328126	86.87558746337892	206.0080413818359	-639.7388305664064	26.36179351806641	183.0135345458984	-472.4672241210939	45.78159713745118	181.2024993896484	-479.1349182128907	57.89670181274415	135.9510040283203	-523.2796020507814	32.00831604003907	97.94926452636714	-784.6625976562502	806.847106933594	433.8893737792969	-811.9456176757815	435.563446044922	363.9634704589843	-830.628601074219	424.8738098144532	237.4434204101562	-833.0354003906252	382.1768188476563	369.2587890624999	-788.9632568359377	367.6412048339844	319.8586120605468	-910.1629028320315	63.5920867919922	329.4021301269531	-884.8820800781252	76.80330657958986	247.7327270507812	-958.8372192382815	19.28806877136231	280.8235168457031	-778.6782226562502	18.2221736907959	265.3473510742187	-782.8614501953127	30.7116985321045	311.6945190429687	-836.1477050781252	11.02135372161865	362.2788085937499	-809.3823852539065	1406.973266601563	260.7171630859374	-907.8231201171877	1170.986328125	251.2359771728515	-643.9526977539064	1073.188110351563	235.4697875976562	-695.3684082031251	1324.50732421875	247.0301818847656	-912.2001953125002	1218.657104492188	167.7271270751952	-871.0246582031252	1345.7451171875	157.9027404785155	-830.1428222656252	1349.716430664063	92.54426574707023	-781.6652832031252	1357.45947265625	77.46555328369132	-842.0625610351565	1051.811279296875	5.841892242431538	-864.8353271484377	1046.3642578125	81.14028167724601	-870.8378906250002	1032.14013671875	32.55354309082021	-768.7415161132815	821.1917724609377	19.00794219970694	-838.448669433594	824.7354125976565	-20.62710571289073	-750.7350463867189	757.5205688476564	5.018723487853912	-843.6328125000002	763.5235595703126	-23.93474578857433	-907.2924804687502	1210.902221679688	333.7444152832031	-862.9840087890627	1333.5205078125	339.6173095703124	-806.7214965820315	1335.451904296875	409.3777770996094	-758.6811523437501	1339.645263671875	423.4323425292969	-744.8514404296877	1021.69970703125	498.5146484375	-790.082214355469	1004.57421875	442.5444641113281	-770.3998413085941	986.8703613281252	485.6386413574219	-619.0169677734377	831.3885498046877	464.3324890136719	-657.3118286132815	820.0825805664065	511.2093505859376	-570.1511840820315	765.1376953125001	466.9801940917969	-634.1328125000002	755.9156494140626	520.5588989257812	
45	0.44	-688.9724121093751	904.6934204101565	122.6278762817382	-904.0594482421877	909.5579223632815	202.6907958984374	-895.783386230469	917.268249511719	308.1947937011718	-677.9099731445314	901.695983886719	371.0339965820312	-759.1093139648439	798.2969360351565	62.96042251586906	-596.5969848632814	462.2312316894532	107.3987121582031	-589.9726562500001	440.5924377441407	229.5533294677734	-601.3946533203126	404.2742919921876	99.19062805175777	-546.3725585937501	399.5909423828126	148.7270050048828	-576.8425903320314	80.14007568359376	126.1289596557617	-551.9279785156251	87.07622528076173	205.1447906494141	-607.2297973632814	23.73470115661621	181.6841888427734	-440.9346923828126	51.23986434936525	181.930435180664	-447.553924560547	62.96420669555665	136.5429382324218	-489.9912719726564	35.06380462646485	97.88066101074216	-775.103454589844	805.842956542969	433.8323974609375	-807.559509277344	435.0648193359376	363.6167602539062	-825.9985351562502	424.7026367187501	236.9725189208984	-829.3292236328127	381.9726867675782	368.8449401855468	-785.289245605469	366.7271423339844	319.6093749999999	-909.7979736328127	64.07262420654298	328.8034362792968	-884.2326660156252	76.93220520019533	247.1858520507812	-958.6781005859377	20.09579467773438	280.1608276367187	-778.6257934570315	18.11376571655274	265.2601318359374	-782.879333496094	30.61329460144044	311.6082763671874	-836.300720214844	11.11030101776123	361.9687499999999	-798.3670043945315	1405.412841796875	260.4809875488281	-896.9822387695315	1169.53857421875	251.0303039550781	-633.3007202148439	1071.201904296875	235.333023071289	-684.3175048828126	1322.771362304688	246.7792053222656	-901.2508544921877	1217.171630859375	167.5120086669921	-859.9875488281252	1344.225952148438	157.7067718505859	-819.1165771484377	1348.140502929688	92.34722900390616	-770.6441040039065	1355.778930664063	77.20190429687491	-833.7926025390627	1050.604858398438	6.305523872375388	-855.8004150390627	1045.315185546875	81.86425018310538	-862.4153442382815	1031.202880859375	33.34035110473623	-762.9301147460939	819.237487792969	18.45665740966788	-832.9593505859377	823.581970214844	-20.41370201110851	-745.8722534179689	755.2464599609376	4.323190212249665	-839.0437622070315	762.4182739257814	-23.72881126403819	-896.5079345703127	1209.528198242188	333.6502075195312	-851.9666137695315	1332.082153320313	339.5292358398437	-795.538757324219	1333.865478515625	409.243408203125	-747.4438476562501	1337.987548828125	423.2104797363281	-731.5246582031252	1020.242126464844	498.4576110839844	-776.9549560546877	1002.679077148438	442.6384582519531	-756.8064575195315	984.9902954101565	485.5745544433594	-603.3958129882814	831.7398071289065	462.4732666015626	-641.1545410156252	819.7111816406252	509.6325378417969	-553.4499511718752	766.2537231445314	464.5307006835938	-616.9744262695315	755.8552856445314	518.5425415039062	
